<svg width="20" height="20" viewBox="0 0 20 20" fill="none" xmlns="http://www.w3.org/2000/svg">
<path fill-rule="evenodd" clip-rule="evenodd" d="M8 0C3.71979 0 0.25 3.46979 0.25 7.75C0.25 12.0302 3.71979 15.5 8 15.5C9.87001 15.5 11.5853 14.8377 12.9242 13.7348L18.4697 19.2803L18.5538 19.3529C18.8474 19.5708 19.2641 19.5466 19.5303 19.2803C19.8232 18.9874 19.8232 18.5126 19.5303 18.2197L13.9848 12.6742C15.0877 11.3353 15.75 9.62001 15.75 7.75C15.75 3.46979 12.2802 0 8 0ZM8 1.5C11.4518 1.5 14.25 4.29822 14.25 7.75C14.25 11.2018 11.4518 14 8 14C4.54822 14 1.75 11.2018 1.75 7.75C1.75 4.29822 4.54822 1.5 8 1.5Z" fill="#2C3E50"/>
</svg>
